<svg width="36" height="26" viewBox="0 0 36 26" fill="none" xmlns="http://www.w3.org/2000/svg">
<path d="M0 4.059V8H5.628L0 4.059ZM4.664 26H13V20.163L4.664 26ZM23 20.164V26H31.335L23 20.164ZM0 18V21.941L5.63 18H0ZM31.337 0H23V5.837L31.337 0ZM36 21.942V18H30.369L36 21.942ZM36 8V4.059L30.371 8H36ZM13 0H4.664L13 5.837V0Z" fill="#00247D"/>
<path d="M25.14 18L34.852 24.801C35.3263 24.3124 35.6672 23.7101 35.842 23.052L28.627 18H25.14ZM13 18H10.859L1.14798 24.8C1.66898 25.33 2.33698 25.709 3.08598 25.885L13 18.943V18ZM23 8.00001H25.141L34.852 1.20001C34.322 0.662281 33.6503 0.286032 32.915 0.115005L23 7.05701V8.00001ZM10.859 8.00001L1.14798 1.20001C0.673936 1.68898 0.332797 2.29105 0.156982 2.94901L7.37198 8.00001H10.859Z" fill="#CF1B2B"/>
<path d="M36 16H21V26H23V20.164L31.335 26H32C32.5313 26.0001 33.0572 25.8941 33.5469 25.6882C34.0367 25.4823 34.4804 25.1807 34.852 24.801L25.14 18H28.627L35.842 23.052C35.935 22.715 36 22.366 36 22V21.942L30.369 18H36V16ZM0 16V18H5.63L0 21.941V22C0 23.091 0.439 24.078 1.148 24.8L10.859 18H13V18.943L3.086 25.884C3.38 25.954 3.684 26 4 26H4.664L13 20.163V26H15V16H0ZM36 4C36.0006 2.95198 35.5881 1.94595 34.852 1.2L25.141 8H23V7.057L32.915 0.115C32.6155 0.0415274 32.3084 0.00293805 32 3.78378e-07H31.337L23 5.837V3.78378e-07H21V10H36V8H30.371L36 4.059V4ZM13 3.78378e-07V5.837L4.664 3.78378e-07H4C3.46862 -0.000231172 2.94257 0.105813 2.45278 0.311895C1.96299 0.517977 1.51936 0.819934 1.148 1.2L10.859 8H7.372L0.157 2.949C0.0577802 3.29071 0.00497341 3.64421 0 4L0 4.059L5.628 8H0V10H15V3.78378e-07H13Z" fill="#EEEEEE"/>
<path d="M21 10V0H15V10H0V16H15V26H21V16H36V10H21Z" fill="#CF1B2B"/>
</svg>
